<svg viewBox="0 0 512 512"
  xmlns="http://www.w3.org/2000/svg"
  xmlns:xlink="http://www.w3.org/1999/xlink">

  <title>piechart</title>

  <g stroke="none" stroke-width="1" fill-rule="evenodd">

    <!-- Background ring -->
    <path
      fill="#abc7ee"
      d="M170.663815,4.26801852 L170.66459,48.0439471
         C97.0559495,66.9904951 42.6666667,133.810265
         42.6666667,213.333333
         C42.6666667,307.589931 119.076736,384 213.333333,384
         C292.856534,384 359.676395,329.610536
         378.622814,256.001708
         L422.398851,256.001851
         C402.631935,353.376516 316.54155,426.666667
         213.333333,426.666667
         C95.5125867,426.666667 0,331.15408 0,213.333333
         C0,110.12547 73.2896486,24.0353214
         170.663815,4.26801852 Z"
      transform="translate(42.666667, 42.666667)" />

    <!-- Solid pie segment -->
    <path
      fill="#045bda"
      d="M213.333333,0
         C329.975872,0 424.754184,93.6118862
         426.638086,209.805477
         L426.666667,213.333333
         L213.333333,213.333333
         L213.333333,0 Z"
      transform="translate(42.666667, 42.666667)" />

  </g>
</svg>

